<svg width="21" height="22" viewBox="0 0 21 22" fill="none" xmlns="http://www.w3.org/2000/svg">
<g clip-path="url(#clip0_3102_1152)">
<path fill-rule="evenodd" clip-rule="evenodd" d="M10.6957 6.1123C12.1235 6.1123 13.2944 7.3918 13.2944 8.6815C13.2944 9.3837 12.9512 10.2113 12.4082 10.8196C13.2913 11.2278 14.2162 11.8693 14.7739 12.6081C15.6686 13.7933 15.5103 14.4448 15.5103 15.5703C15.5103 17.9055 6.19186 17.9029 6.10525 15.5703C6.06377 14.4531 6.01687 13.8505 6.80026 12.6794C7.30566 11.9238 8.17909 11.2638 9.03015 10.8411C8.47554 10.232 8.12378 9.39248 8.12378 8.6815C8.12378 7.3918 9.26785 6.1123 10.6957 6.1123Z" stroke="#332E0E" stroke-width="1.5" stroke-linecap="round" stroke-linejoin="round"/>
<path d="M7.0918 5.94263C5.91615 5.94263 5.11069 7.20592 5.11069 8.12635C5.11069 8.77449 5.24562 9.5101 5.69278 10.0716C4.9656 10.4483 4.20402 11.0405 3.74482 11.7224C3.00813 12.8163 3.13849 14.039 3.13849 14.4049C3.13849 14.937 3.60171 15.3377 4.29947 15.6071" stroke="#332E0E" stroke-width="1.5" stroke-linecap="round" stroke-linejoin="round"/>
<path d="M14.5098 5.94263C15.6854 5.94263 16.4909 7.20592 16.4909 8.12635C16.4909 8.77449 16.3559 9.5101 15.9088 10.0716C16.636 10.4483 17.3975 11.0405 17.8567 11.7224C18.5934 12.8163 18.4631 14.039 18.4631 14.4049C18.4631 14.937 17.9998 15.3377 17.3021 15.6071" stroke="#332E0E" stroke-width="1.5" stroke-linecap="round" stroke-linejoin="round"/>
</g>
<defs>
<clipPath id="clip0_3102_1152">
<rect width="20.23" height="20.23" fill="white" transform="translate(0.77002 0.88501)"/>
</clipPath>
</defs>
</svg>
