<svg width="21" height="22" viewBox="0 0 21 22" fill="none" xmlns="http://www.w3.org/2000/svg">
<path fill-rule="evenodd" clip-rule="evenodd" d="M4.94215 6.24762C5.68392 5.46624 5.94607 5.24708 6.26216 5.14509C6.48092 5.08777 6.71034 5.08458 6.9306 5.13581C7.22056 5.22011 7.29726 5.28417 8.24807 6.23161C9.0834 7.06356 9.16685 7.15376 9.24693 7.31644C9.40005 7.602 9.42397 7.93934 9.31268 8.24365C9.22839 8.47545 9.10869 8.62886 8.6021 9.13714L8.27168 9.46841C8.1849 9.55659 8.16451 9.6905 8.2211 9.80052C8.95523 11.053 9.99677 12.0974 11.2472 12.835C11.3911 12.9121 11.5683 12.8872 11.6855 12.7735L12.0033 12.4608C12.1997 12.2594 12.4077 12.0697 12.6262 11.8926C12.9694 11.6819 13.397 11.6631 13.7574 11.8429C13.9335 11.9272 13.9917 11.9795 14.8532 12.8392C15.7416 13.7251 15.7669 13.753 15.8647 13.9561C16.0487 14.2924 16.0468 14.6996 15.8596 15.0342C15.7644 15.223 15.7062 15.2913 15.2064 15.8021C14.9046 16.1106 14.6205 16.3921 14.575 16.4334C14.1627 16.7748 13.6336 16.9423 13.0999 16.9004C12.1234 16.8114 11.1783 16.5096 10.3309 16.0162C8.45386 15.0217 6.85591 13.5727 5.68308 11.8016C5.42763 11.4309 5.20052 11.0415 5.00369 10.6367C4.47567 9.73171 4.203 8.70045 4.21472 7.65276C4.25503 7.10467 4.51788 6.59694 4.94215 6.24762Z" stroke="#332E0E" stroke-width="1.5" stroke-linecap="round" stroke-linejoin="round"/>
</svg>
