<svg width="21" height="21" viewBox="0 0 21 21" fill="none" xmlns="http://www.w3.org/2000/svg">
<g clip-path="url(#clip0_3102_1162)">
<path d="M11.8312 14.641L11.3203 15.1519C9.76843 16.7037 7.25239 16.7037 5.70054 15.1519C4.14869 13.6 4.1487 11.084 5.70054 9.53212L6.21143 9.02124" stroke="#0C0C0C" stroke-width="1.5"/>
<path fill-rule="evenodd" clip-rule="evenodd" d="M8.16141 5.52176L15.3306 12.6909C15.6127 12.9731 15.6509 13.3924 15.4157 13.6276C15.361 13.6823 15.2941 13.7239 15.2187 13.75L11.6608 14.9815L5.87082 9.19149L7.10238 5.63367C7.21447 5.30986 7.58887 5.18786 7.93863 5.36118C8.02007 5.40154 8.09571 5.45606 8.16141 5.52176Z" stroke="#0C0C0C" stroke-width="1.5"/>
<path d="M13.4476 7.33796L15.4592 5.32635M14.9898 9.21546L17.0014 9.21546L14.9898 9.21546ZM11.6371 5.86278L11.6371 3.85117L11.6371 5.86278Z" stroke="#0C0C0C" stroke-width="1.5" stroke-linecap="round" stroke-linejoin="round"/>
</g>
<defs>
<clipPath id="clip0_3102_1162">
<rect width="20.23" height="20.23" fill="white"/>
</clipPath>
</defs>
</svg>
