<svg width="21" height="22" viewBox="0 0 21 22" fill="none" xmlns="http://www.w3.org/2000/svg">
<path fill-rule="evenodd" clip-rule="evenodd" d="M12.4308 12.6855H8.25566C7.02684 12.7465 5.93817 13.4971 5.44416 14.6239C4.84832 15.7937 6.03748 16.8994 7.42047 16.8994H13.2659C14.6498 16.8994 15.8389 15.7937 15.2423 14.6239C14.7483 13.4971 13.6596 12.7465 12.4308 12.6855Z" stroke="#332E0E" stroke-width="1.5" stroke-linecap="round" stroke-linejoin="round"/>
<path fill-rule="evenodd" clip-rule="evenodd" d="M12.8716 7.62891C12.8716 9.02526 11.7396 10.1572 10.3433 10.1572C8.94691 10.1572 7.81494 9.02526 7.81494 7.62891C7.81494 6.23255 8.94691 5.10059 10.3433 5.10059C11.0138 5.10059 11.6569 5.36696 12.1311 5.84111C12.6052 6.31527 12.8716 6.95836 12.8716 7.62891Z" stroke="#332E0E" stroke-width="1.5" stroke-linecap="round" stroke-linejoin="round"/>
</svg>
